<svg id="Layer_1" data-name="Layer 1" xmlns="http://www.w3.org/2000/svg" viewBox="0 0 16 16"><defs><style>.cls-1{fill:#fff;}</style></defs><title>icon_btn_3</title><path class="cls-1" d="M1.8,2.77a7.9,7.9,0,0,0,6.11,3.1A2.9,2.9,0,0,1,9.47,2.51a2.44,2.44,0,0,1,3.36.68,7.51,7.51,0,0,0,1.87-.7A2.4,2.4,0,0,1,13.53,4s.12.27,1.56-.34c0,0-.17.52-1.38,1.5A8.85,8.85,0,0,1,12,10.52,8.33,8.33,0,0,1,.91,12.59a6.25,6.25,0,0,0,4.21-1.24A3.06,3.06,0,0,1,2.44,9.29a3.09,3.09,0,0,0,1.32,0,3.05,3.05,0,0,1-2.32-3,1.64,1.64,0,0,0,1.29.37S.61,5.51,1.8,2.77Z"/></svg>